<?xml version="1.0" encoding="UTF-8" standalone="no"?>
<svg
   width="64"
   height="64"
   version="1.1"
   id="svg1"
   sodipodi:docname="HTTPEventSource.svg"
   inkscape:version="1.3.2 (091e20ef0f, 2023-11-25)"
   viewBox="0 0 16 16"
   xmlns:inkscape="http://www.inkscape.org/namespaces/inkscape"
   xmlns:sodipodi="http://sodipodi.sourceforge.net/DTD/sodipodi-0.dtd"
   xmlns="http://www.w3.org/2000/svg"
   xmlns:svg="http://www.w3.org/2000/svg">
  <defs
     id="defs1" />
  <sodipodi:namedview
     id="namedview1"
     pagecolor="#ffffff"
     bordercolor="#000000"
     borderopacity="0.25"
     inkscape:showpageshadow="2"
     inkscape:pageopacity="0.0"
     inkscape:pagecheckerboard="0"
     inkscape:deskcolor="#d1d1d1"
     inkscape:zoom="8"
     inkscape:cx="-14.4375"
     inkscape:cy="32.25"
     inkscape:window-width="2560"
     inkscape:window-height="1369"
     inkscape:window-x="0"
     inkscape:window-y="0"
     inkscape:window-maximized="1"
     inkscape:current-layer="svg1" />
  <path
     fill="#e0e0e0"
     d="M 11,1 V 4 H 9 l 3,4 3,-4 H 13 V 1 Z m -9,9 v 3 h 2 v 1 H 2 v 1 H 5 V 12 H 3 V 11 H 5 V 10 Z M 3,1 V 4 H 1 L 4,8 7,4 H 5 V 1 Z m 3,9 v 3 h 2 v 1 H 6 v 1 H 9 V 12 H 7 v -1 h 2 v -1 z m 4,-10e-8 V 15 h 3 v -1 h -2 v -1 h 2 v -1 h -2 v -1 h 2 V 9.9999999 Z"
     id="path1"
     sodipodi:nodetypes="ccccccccccccccccccccccccccccccccccccccccccccccccccccccc" />
</svg>
